<?xml version="1.0" encoding="utf-8"?>
<!-- Generator: Adobe Illustrator 19.2.1, SVG Export Plug-In . SVG Version: 6.00 Build 0)  -->
<svg version="1.1" id="layer" xmlns="http://www.w3.org/2000/svg" xmlns:xlink="http://www.w3.org/1999/xlink" x="0px" y="0px"
     viewBox="0 0 652 652" style="enable-background:new 0 0 652 652;" xml:space="preserve">
<style type="text/css">
	.st0{fill:#7D0005;}
	.st1{fill:#7E8387;}
</style>
    <g>
	<path class="st0" d="M348.9,374.8c0,4.2-0.2,5.3-1.2,6.5c-0.7,0.8-1.9,1.3-3.1,1.3c-1.2,0-2.4-0.5-3.1-1.3c-1-1.1-1.2-2.3-1.2-6.5
		c0-4.2,0.2-5.3,1.2-6.5c0.7-0.8,1.9-1.3,3.1-1.3c1.2,0,2.4,0.5,3.1,1.3C348.7,369.5,348.9,370.6,348.9,374.8 M352,374.8
		c0-4,0.1-6.3-2-8.4c-1.4-1.4-3.3-2.2-5.5-2.2c-2.2,0-4,0.8-5.5,2.2c-2,2-2,4.4-2,8.4c0,4,0,6.3,2,8.3c1.4,1.4,3.2,2.2,5.5,2.2
		c2.2,0,4.1-0.8,5.5-2.2C352.1,381.1,352,378.8,352,374.8"/>
        <polygon class="st0" points="370,367.3 370,364.4 356.7,364.4 356.7,385.2 359.9,385.2 359.9,376.4 368.5,376.4 368.5,373.6
		359.9,373.6 359.9,367.3 	"/>
        <polygon class="st0" points="393,367.3 393,364.4 378.4,364.4 378.4,367.3 384.1,367.3 384.1,385.2 387.3,385.2 387.3,367.3 	"/>
        <polygon class="st0" points="408.7,385.2 408.7,382.4 398.6,382.4 398.6,376.1 407.2,376.1 407.2,373.3 398.6,373.3 398.6,367.2
		408.7,367.2 408.7,364.4 395.4,364.4 395.4,385.2 	"/>
        <path class="st0" d="M425.7,379h-3.2c-0.5,2.1-1.9,3.6-4.2,3.6c-1.2,0-2.3-0.5-3.1-1.3c-1-1.1-1.3-2.3-1.3-6.5
		c0-4.2,0.2-5.4,1.3-6.5c0.7-0.8,1.8-1.3,3.1-1.3c2.3,0,3.7,1.5,4.2,3.6h3.2c-0.7-4.1-3.6-6.4-7.4-6.4c-2.2,0-4,0.8-5.5,2.2
		c-2,2-2,4.4-2,8.3c0,4,0,6.3,2,8.4c1.4,1.4,3.3,2.2,5.5,2.2C422,385.4,425,383.1,425.7,379"/>
        <polygon class="st0" points="443.5,385.2 443.5,364.4 440.3,364.4 440.3,373.3 431.9,373.3 431.9,364.4 428.7,364.4 428.7,385.2
		431.9,385.2 431.9,376.1 440.3,376.1 440.3,385.2 	"/>
        <polygon class="st0" points="464,385.2 464,364.4 460.8,364.4 460.8,379 451.2,364.4 448.3,364.4 448.3,385.2 451.5,385.2
		451.5,370.6 461.1,385.2 	"/>
        <path class="st0" d="M479.3,374.8c0,4.2-0.2,5.3-1.2,6.5c-0.7,0.8-1.9,1.3-3.1,1.3c-1.2,0-2.4-0.5-3.1-1.3c-1-1.1-1.2-2.3-1.2-6.5
		c0-4.2,0.2-5.3,1.2-6.5c0.7-0.8,1.9-1.3,3.1-1.3c1.2,0,2.4,0.5,3.1,1.3C479.1,369.5,479.3,370.6,479.3,374.8 M482.4,374.8
		c0-4,0.1-6.3-2-8.4c-1.4-1.4-3.3-2.2-5.5-2.2s-4,0.8-5.5,2.2c-2,2-2,4.4-2,8.4c0,4,0,6.3,2,8.3c1.4,1.4,3.2,2.2,5.5,2.2
		s4.1-0.8,5.5-2.2C482.5,381.1,482.4,378.8,482.4,374.8"/>
        <polygon class="st0" points="498.8,385.2 498.8,382.4 488.8,382.4 488.8,364.4 485.6,364.4 485.6,385.2 	"/>
        <path class="st0" d="M511.7,374.8c0,4.2-0.2,5.3-1.2,6.5c-0.7,0.8-1.9,1.3-3.1,1.3c-1.2,0-2.4-0.5-3.1-1.3c-1-1.1-1.2-2.3-1.2-6.5
		c0-4.2,0.2-5.3,1.2-6.5c0.7-0.8,1.9-1.3,3.1-1.3c1.2,0,2.4,0.5,3.1,1.3C511.5,369.5,511.7,370.6,511.7,374.8 M514.8,374.8
		c0-4,0.1-6.3-2-8.4c-1.4-1.4-3.3-2.2-5.5-2.2s-4,0.8-5.5,2.2c-2,2-2,4.4-2,8.4c0,4,0,6.3,2,8.3c1.4,1.4,3.2,2.2,5.5,2.2
		s4.1-0.8,5.5-2.2C514.9,381.1,514.8,378.8,514.8,374.8"/>
        <path class="st0" d="M533.2,377.2V374h-7.6v2.7h4.4v1.2c0,1.3-0.3,2.4-1.1,3.3c-0.8,0.9-2,1.5-3.4,1.5c-1.2,0-2.3-0.5-3.1-1.3
		c-1-1.1-1.3-2.3-1.3-6.5c0-4.2,0.2-5.3,1.3-6.5c0.7-0.8,1.8-1.3,3.1-1.3c2.3,0,3.9,1.3,4.4,3.6h3.2c-0.6-3.6-3.2-6.4-7.6-6.4
		c-2.2,0-4,0.8-5.5,2.2c-2,2-2,4.3-2,8.3s0,6.3,2,8.4c1.4,1.4,3.3,2.2,5.5,2.2c2.2,0,4.1-0.7,5.7-2.4
		C532.7,381.6,533.2,379.8,533.2,377.2"/>
        <polygon class="st0" points="550.3,364.4 546.9,364.4 542.5,373.6 538.2,364.4 534.7,364.4 540.9,376.7 540.9,385.2 544.1,385.2
		544.1,376.7 	"/>
        <path class="st0" d="M346.5,354.5h-3.6l1.9-5.5L346.5,354.5z M354.2,361.8l-7.6-20.8h-3.9l-7.6,20.8h5.3l1-3.1h6.4l1,3.1H354.2z"/>
        <path class="st0" d="M371.4,354.5v-13.5h-5.1v13.4c0,1.9-1.1,3-2.8,3c-1.7,0-2.7-1.1-2.7-3v-13.4h-5.1v13.5c0,4.6,3.5,7.5,7.9,7.5
		C367.8,362,371.4,359.1,371.4,354.5"/>
        <path class="st0" d="M389.5,355.5c0-1.9-0.4-3.5-1.6-4.6c-0.9-0.9-2.2-1.5-4.1-1.7l-2.5-0.3c-0.7-0.1-1.2-0.3-1.4-0.6
		c-0.3-0.3-0.4-0.7-0.4-1c0-0.9,0.7-1.9,2.5-1.9c0.9,0,2.6-0.1,3.9,1.2l3.2-3.2c-1.8-1.8-4-2.5-7-2.5c-4.7,0-7.6,2.8-7.6,6.6
		c0,1.8,0.5,3.2,1.4,4.2c0.9,1,2.3,1.6,4.2,1.8l2.5,0.3c0.7,0.1,1.1,0.3,1.4,0.6c0.3,0.3,0.4,0.7,0.4,1.2c0,1.2-1,1.9-3,1.9
		c-1.7,0-3.6-0.4-4.6-1.5l-3.3,3.3c2.1,2.2,4.7,2.7,7.9,2.7C385.9,362,389.5,359.7,389.5,355.5"/>
        <polygon class="st0" points="407,345.6 407,341.1 391.7,341.1 391.7,345.6 396.8,345.6 396.8,361.9 401.9,361.9 401.9,345.6 	"/>
        <path class="st0" d="M420.2,347.7c0,1.1-0.8,2.1-2.2,2.1h-2.9v-4.2h2.9C419.4,345.6,420.2,346.7,420.2,347.7 M426.4,361.8l-4.5-8.7
		c1.6-0.8,3.4-2.6,3.4-5.4c0-3.4-2.5-6.7-7.1-6.7H410v20.8h5.1v-7.7h1.7l3.7,7.7H426.4z"/>
        <rect x="428.7" y="341.1" class="st0" width="5.1" height="20.8"/>
        <path class="st0" d="M447.1,354.5h-3.6l1.9-5.5L447.1,354.5z M454.7,361.8l-7.6-20.8h-3.9l-7.6,20.8h5.3l1-3.1h6.4l1,3.1H454.7z"/>
        <polygon class="st0" points="472.8,361.8 472.8,341.1 467.6,341.1 467.6,351.5 461,341.1 456.5,341.1 456.5,361.8 461.6,361.8
		461.6,351.4 468.3,361.8 	"/>
        <rect x="484" y="341.1" class="st0" width="3.2" height="20.8"/>
        <polygon class="st0" points="507.9,361.8 507.9,341.1 504.8,341.1 504.8,355.7 495.2,341.1 492.3,341.1 492.3,361.8 495.5,361.8
		495.5,347.2 505.1,361.8 	"/>
        <path class="st0" d="M526.1,355.9c0-1.8-0.6-3.3-1.7-4.3c-0.9-0.8-2-1.3-3.9-1.5l-2.4-0.4c-1-0.1-1.8-0.5-2.3-1
		c-0.6-0.5-0.8-1.2-0.8-1.9c0-1.8,1.3-3.2,3.8-3.2c1.8,0,3.2,0.4,4.5,1.6l2-2c-1.8-1.7-3.7-2.4-6.5-2.4c-4.3,0-7,2.5-7,6.1
		c0,1.7,0.5,3,1.5,4c0.9,0.8,2.2,1.4,3.9,1.7l2.5,0.3c1.2,0.2,1.7,0.4,2.3,0.9c0.6,0.5,0.8,1.3,0.8,2.2c0,2-1.6,3.2-4.3,3.2
		c-2.1,0-3.8-0.5-5.3-2l-2.1,2.1c2,2,4.2,2.7,7.4,2.7C523,362,526.1,359.8,526.1,355.9"/>
        <polygon class="st0" points="543.1,343.9 543.1,341.1 528.5,341.1 528.5,343.9 534.2,343.9 534.2,361.9 537.4,361.9 537.4,343.9
		"/>
        <rect x="546.7" y="341.1" class="st0" width="3.2" height="20.8"/>
        <polygon class="st0" points="568,343.9 568,341.1 553.4,341.1 553.4,343.9 559.1,343.9 559.1,361.9 562.3,361.9 562.3,343.9 	"/>
        <path class="st0" d="M585.9,354.8v-13.8h-3.2v13.6c0,2.8-1.7,4.5-4.3,4.5s-4.3-1.7-4.3-4.5v-13.6H571v13.8c0,4.3,3.2,7.2,7.4,7.2
		S585.9,359.1,585.9,354.8"/>
        <polygon class="st0" points="603.5,343.9 603.5,341.1 588.9,341.1 588.9,343.9 594.6,343.9 594.6,361.9 597.8,361.9 597.8,343.9
		"/>
        <polygon class="st0" points="620.1,361.8 620.1,359 609.9,359 609.9,352.8 618.6,352.8 618.6,350 609.9,350 609.9,343.9
		620.1,343.9 620.1,341.1 606.8,341.1 606.8,361.8 	"/>
        <polygon class="st1" points="337.8,297.5 337.8,259.2 238.2,259.2 238.2,297.5 267.9,297.5 267.9,385.2 308,385.2 308,297.5 	"/>
</g>
    <g>
	<rect x="190.8" y="259.2" class="st1" width="40.1" height="126"/>
        <polygon class="st1" points="143.4,385.2 183.4,385.2 183.4,259.2 146,259.2 20.1,385.2 71.8,385.2 143.4,313.6 	"/>
</g>
</svg>
